<?xml version="1.0" encoding="UTF-8"?>
<svg id="Capa_2" data-name="Capa 2" xmlns="http://www.w3.org/2000/svg" xmlns:xlink="http://www.w3.org/1999/xlink" viewBox="0 0 285.5 34.15">
  <defs>
    <style>
      .cls-1 {
        fill: none;
      }

      .cls-2 {
        fill: #fab71d;
      }

      .cls-2, .cls-3 {
        fill-rule: evenodd;
      }

      .cls-3 {
        fill: #707271;
      }

      .cls-4 {
        fill: #faea27;
      }

      .cls-5 {
        fill: #1e1e1c;
      }

      .cls-6 {
        fill: #f2f2f2;
      }

      .cls-7 {
        fill: #8c2739;
      }

      .cls-8 {
        fill: #0d76bc;
      }

      .cls-9 {
        clip-path: url(#clippath);
      }

      .cls-10 {
        fill: #034ea2;
      }
    </style>
    <clipPath id="clippath">
      <rect class="cls-1" x="239.7" y="1.72" width="45.81" height="32.42"/>
    </clipPath>
  </defs>
  <g id="Capa_1-2" data-name="Capa 1">
    <g>
      <g class="cls-9">
        <g>
          <path class="cls-8" d="M255.93,6.02c-1.27,1.07-2.53,2.13-3.81,3.2-.11-.21-.23-.4-.34-.6-.27-.49-.55-.98-.82-1.46-.05-.08-.04-.12.04-.18.16-.12.31-.26.47-.39.03-.03.06-.06.11-.11-.11-.09-.2-.18-.3-.24-.42-.3-.89-.47-1.4-.55-.64-.11-1.28-.1-1.91.11-.79.27-1.48.7-1.92,1.44-.21.37-.34.76-.37,1.18-.04.7.28,1.22.84,1.61.53.38,1.14.58,1.77.74.69.18,1.4.32,2.09.52.82.23,1.6.55,2.3,1.03.89.59,1.4,1.43,1.59,2.48.14.79.1,1.56-.05,2.34-.18,1.02-.5,2-1.01,2.91-.91,1.61-2.26,2.68-4.01,3.27-.71.24-1.44.38-2.19.44-.61.05-1.22.07-1.83.02-1.42-.12-2.75-.5-3.89-1.4-.69-.54-1.23-1.2-1.57-2.02-.02-.06-.03-.11.02-.16.89-.79,1.78-1.58,2.67-2.37.02-.02.05-.03.07-.05.11.16.21.33.34.48.62.76,1.41,1.24,2.38,1.44.9.18,1.8.25,2.71.07,1.3-.26,2.16-1.11,2.42-2.42.08-.41.11-.82-.01-1.24-.17-.55-.56-.91-1.05-1.17-.47-.24-.97-.37-1.47-.47-.82-.15-1.65-.3-2.44-.58-.89-.31-1.72-.72-2.4-1.37-.64-.63-1.02-1.39-1.15-2.27-.14-.96,0-1.9.27-2.83.32-1.14.82-2.2,1.59-3.11,1.16-1.36,2.62-2.21,4.38-2.49,1.12-.18,2.25-.16,3.37.11,1.17.28,2.12.92,2.92,1.81.46.52.82,1.11,1.21,1.67.14.2.27.39.41.6h0Z"/>
          <path class="cls-8" d="M261.25,16.68s.05-.08.08-.12c.54-.82,1.08-1.65,1.63-2.48.05-.08.11-.11.21-.11h1.91c.21,0,.22,0,.26-.21.08-.47.08-.92-.08-1.37-.24-.63-.79-1.02-1.47-1.04-.95-.03-1.73.35-2.37,1.03-.74.79-1.16,1.75-1.35,2.81-.11.6-.19,1.2-.17,1.82.02.56.11,1.1.36,1.59.43.85,1.11,1.37,2.07,1.47.8.08,1.58-.02,2.36-.21.77-.19,1.5-.49,2.23-.79.03-.02.07-.03.1-.04h.03c-.1.27-.2.55-.3.82-.34.95-.69,1.89-1.04,2.84-.04.1-.08.14-.19.18-.8.24-1.63.4-2.46.48-.6.06-1.21.08-1.82.04-1.51-.1-2.84-.61-3.92-1.7-.78-.79-1.25-1.75-1.5-2.83-.15-.67-.22-1.35-.19-2.04.1-2.54.99-4.74,2.9-6.46,1.15-1.04,2.52-1.69,4.05-2,.6-.12,1.21-.18,1.82-.17,1.22.03,2.37.32,3.34,1.09.86.68,1.37,1.57,1.56,2.65.22,1.32,0,2.58-.52,3.79-.12.29-.27.57-.4.86-.03.07-.07.09-.15.09h-6.85s-.06,0-.11,0l-.02.02Z"/>
          <path class="cls-8" d="M285.5,3.72c-.02.06-.04.11-.06.18-.37.95-.73,1.89-1.09,2.84-.04.1-.08.11-.18.08-.53-.14-1.05-.29-1.58-.39-1.43-.26-2.58.23-3.44,1.39-.41.54-.66,1.17-.84,1.81-.62,2.23-1.24,4.47-1.87,6.7,0,.04-.01.08,0,.13.03-.03.05-.06.08-.09.75-.94,1.5-1.88,2.24-2.82.06-.08.13-.11.24-.11h2.92c-.05.15-.11.28-.15.41-.34.89-.69,1.78-1.02,2.67-.05.11-.1.14-.21.14h-4c-.14,0-.19.04-.23.18-.59,2.11-1.17,4.22-1.76,6.34-.03.12-.08.16-.21.16h-4.01c.62-2.23,1.24-4.43,1.86-6.66h-1.88c.06-.17.11-.31.17-.44.34-.88.68-1.76,1.02-2.65.05-.11.1-.15.22-.14h1.23c.11,0,.16-.03.19-.14.38-1.38.75-2.77,1.16-4.14.67-2.22,1.97-3.96,4.01-5.11.9-.51,1.87-.83,2.9-.95.48-.05.96-.08,1.44-.07.98.04,1.93.26,2.83.65,0,0,.02.02.04.03h-.02Z"/>
          <path class="cls-5" d="M241.08,27.26c-.06,0-.11,0-.16.03-.05.02-.08.05-.11.08-.03.03-.05.07-.07.11-.02.04-.02.08-.02.13,0,.08.02.15.08.21.05.06.12.11.2.16.08.05.17.1.26.14s.18.11.26.17c.08.06.14.14.21.22.05.08.08.18.08.31,0,.08-.02.15-.05.23-.03.08-.08.14-.15.2-.07.06-.14.11-.24.14-.09.03-.2.05-.32.05-.05,0-.09,0-.15,0-.06,0-.11-.02-.17-.02-.05,0-.11-.02-.18-.05-.06-.02-.11-.04-.17-.07l.08-.21c.1.05.19.08.29.09.1.02.18.03.26.03.15,0,.27-.04.35-.11.08-.08.12-.17.12-.28,0-.09-.03-.17-.08-.23-.05-.06-.12-.11-.2-.17-.08-.05-.17-.1-.26-.14s-.18-.1-.26-.16-.15-.13-.2-.21c-.05-.08-.08-.18-.08-.3,0-.08.02-.15.05-.22.03-.07.08-.13.13-.18.05-.05.13-.09.21-.12.08-.03.17-.05.26-.05s.18,0,.27.02c.09.02.19.04.31.08l-.08.21c-.09-.03-.18-.05-.25-.05-.08,0-.15-.02-.21-.02v-.02Z"/>
          <path class="cls-5" d="M243.23,28.38c0-.06,0-.12-.02-.18-.01-.05-.04-.1-.07-.14-.03-.04-.07-.07-.11-.09-.05-.02-.09-.03-.14-.03-.14,0-.24.05-.33.16-.08.11-.13.26-.13.46,0,.1.02.18.04.26.02.08.06.14.11.2.05.05.1.1.16.13.06.03.13.05.2.05s.14,0,.21-.02c.07-.02.14-.05.24-.09l.08.21c-.1.05-.2.09-.3.11-.1.02-.18.03-.26.03-.11,0-.22-.02-.32-.07-.1-.05-.18-.11-.24-.18-.07-.08-.12-.17-.15-.27-.04-.11-.05-.22-.05-.35s.02-.24.05-.35c.04-.11.09-.19.16-.27.07-.08.15-.13.24-.17.1-.04.21-.06.33-.06.11,0,.21.02.29.08.08.05.15.11.21.2.05.08.08.18.09.28.02.11,0,.22-.03.34h-.93c.02-.06.05-.11.1-.15.05-.04.1-.06.18-.06h.4Z"/>
          <path class="cls-5" d="M244.15,27.74s.06.08.07.11c.02.04.02.09.04.14v.06l.02-.06c.05-.08.1-.14.18-.2.08-.05.16-.08.24-.08.05,0,.09,0,.16.02l-.04.25s-.06-.02-.09-.02h-.07s-.1,0-.15.03c-.05.02-.09.05-.13.09-.04.05-.07.1-.09.17-.02.07-.04.15-.04.24v.88h-.28v-1.1c0-.1,0-.2-.02-.3-.02-.1-.02-.19-.04-.26h.22Z"/>
          <path class="cls-5" d="M245.63,29.4l-.63-1.65h.32l.44,1.29.02.08.02-.08.44-1.29h.31l-.63,1.65h-.31,0Z"/>
          <path class="cls-5" d="M246.83,27.26c0-.05.01-.1.05-.14.04-.04.08-.05.14-.05s.1.02.14.05c.04.04.05.08.05.14s-.02.1-.05.14c-.04.04-.08.05-.14.05s-.1-.02-.14-.05c-.04-.04-.05-.08-.05-.14ZM246.87,29.4v-1.65h.31v1.65h-.31Z"/>
          <path class="cls-5" d="M248.34,29.43c-.11,0-.21-.02-.31-.05-.09-.04-.18-.09-.24-.17-.07-.08-.12-.16-.17-.27-.04-.11-.06-.23-.06-.37s.02-.26.06-.37c.04-.11.1-.2.17-.27.07-.07.15-.13.24-.17.09-.04.19-.05.3-.05.06,0,.12,0,.19.02.07,0,.14.03.2.05l-.08.21c-.06-.02-.11-.03-.17-.04-.05,0-.1,0-.15,0-.06,0-.12.02-.18.04-.05.02-.1.06-.15.11-.04.05-.08.11-.1.2-.02.08-.04.18-.04.28s.01.21.04.28c.02.08.06.14.1.2.04.05.09.09.15.11.05.02.11.04.18.04.05,0,.1,0,.15-.02.05-.02.12-.04.2-.07l.08.21c-.08.05-.17.07-.24.09-.08.02-.14.02-.19.02h.02Z"/>
          <path class="cls-5" d="M249.02,27.26c0-.05.02-.1.05-.14.04-.04.08-.05.14-.05s.1.02.14.05c.04.04.05.08.05.14s-.02.1-.05.14c-.04.04-.08.05-.14.05s-.1-.02-.14-.05c-.04-.04-.05-.08-.05-.14ZM249.06,29.4v-1.65h.31v1.65h-.31Z"/>
          <path class="cls-5" d="M249.75,28.57c0-.14.02-.27.07-.38.05-.11.11-.2.18-.27.08-.07.15-.12.25-.16.09-.03.18-.05.28-.05.12,0,.23.02.33.07.1.05.18.11.24.18.07.08.11.17.15.27.03.11.05.21.05.34,0,.14-.02.26-.06.37-.04.11-.1.2-.17.27-.07.08-.15.13-.24.17-.09.04-.19.05-.3.05s-.21-.02-.31-.05c-.09-.04-.18-.09-.24-.17-.07-.08-.12-.16-.17-.27-.04-.11-.06-.23-.06-.37h0ZM250.07,28.57c0,.09,0,.18.03.26.02.08.05.14.09.2.04.05.08.1.15.13.05.03.12.05.19.05.08,0,.14-.02.2-.05.06-.03.11-.08.15-.14.04-.06.07-.12.08-.2.02-.08.03-.16.03-.24,0-.11-.01-.2-.04-.28-.02-.08-.06-.14-.1-.2-.04-.05-.09-.09-.15-.11-.05-.02-.11-.04-.18-.04s-.12.02-.18.04c-.05.02-.1.06-.15.11-.04.05-.08.11-.1.2-.02.08-.04.18-.04.28Z"/>
          <path class="cls-5" d="M254.13,27.73c0,.13-.03.24-.09.34-.06.09-.14.18-.24.23l-.08.03c.09.05.16.11.21.18.05.08.08.16.11.25.03.09.06.2.08.3.03.11.07.22.11.33h-.41c-.04-.08-.07-.18-.09-.27-.02-.1-.05-.19-.08-.28-.02-.09-.06-.18-.1-.25-.04-.08-.09-.13-.16-.18h-.21s-.08-.02-.11-.02c.02-.03.03-.05.05-.08.02-.03.04-.06.06-.08.02-.02.05-.05.08-.06.03-.02.06-.02.1-.03.05,0,.09-.02.14-.04.05-.02.08-.05.12-.08.03-.04.06-.08.08-.12.02-.05.03-.1.03-.16s-.01-.11-.04-.16c-.02-.05-.06-.09-.1-.13-.05-.04-.09-.07-.15-.08-.06-.02-.12-.03-.18-.03h-.21s-.05,0-.08,0v2.06h-.4v-2.3c.08-.02.14-.02.21-.03.06,0,.12-.02.18-.02.05,0,.11,0,.16-.02h.17c.13,0,.24.02.35.05.11.03.21.08.28.14.08.06.14.14.18.22.05.08.07.18.07.29h-.02Z"/>
          <path class="cls-5" d="M255.34,28.38h.33c0-.05,0-.11,0-.15-.01-.05-.03-.09-.06-.13-.03-.04-.06-.07-.1-.08-.04-.02-.08-.03-.14-.03s-.11,0-.15.03c-.05.02-.09.05-.13.1-.04.05-.07.11-.09.18-.02.07-.03.15-.03.24,0,.19.05.34.13.44.08.11.2.16.34.16.08,0,.15,0,.21-.03.07-.02.15-.05.24-.09l.1.27c-.11.05-.21.09-.31.11-.1.02-.2.03-.29.03-.14,0-.26-.02-.36-.08-.1-.05-.19-.11-.26-.2-.07-.08-.12-.18-.15-.28-.03-.11-.05-.22-.05-.34,0-.13.02-.25.06-.35.04-.11.1-.19.18-.27.08-.08.16-.13.26-.17.1-.04.21-.06.33-.06s.22.02.31.07c.09.05.17.11.22.2.05.08.09.18.11.29.02.11,0,.23-.05.36h-.91c.02-.07.05-.13.1-.18.05-.05.1-.07.16-.07v.02Z"/>
          <path class="cls-5" d="M256.34,28.61c0-.13.02-.25.06-.36.04-.11.1-.21.18-.29.08-.08.17-.14.28-.19.11-.05.23-.07.37-.07h.14s.09,0,.14.02c.05,0,.11.02.16.03.05.02.12.03.19.05v1.59c0,.14-.02.25-.06.36-.04.1-.1.18-.17.25-.08.07-.16.11-.26.14-.1.03-.21.05-.33.05-.08,0-.18,0-.28-.02-.11-.02-.21-.05-.34-.11l.1-.27c.1.05.19.08.27.09.08.02.15.02.22.02.06,0,.12,0,.18-.03.05-.02.11-.05.14-.09.04-.04.08-.09.1-.15.02-.06.04-.13.04-.21v-1.41s-.08-.02-.13-.02h-.11c-.15,0-.27.05-.35.17-.08.11-.12.26-.12.45,0,.07,0,.13.02.19.02.06.03.12.06.17.02.05.06.09.11.11.05.03.09.04.16.04.06,0,.11,0,.14.05.04.04.08.08.11.14-.05.03-.11.06-.18.08-.06.02-.11.03-.17.03-.1,0-.19-.02-.27-.06-.08-.05-.15-.11-.21-.18-.06-.08-.11-.16-.14-.26-.03-.1-.05-.21-.05-.31v.02Z"/>
          <path class="cls-5" d="M258.27,27.26c0-.07.02-.12.07-.18.05-.05.1-.07.17-.07s.13.02.17.07c.05.05.07.11.07.18s-.02.12-.07.17c-.05.05-.1.07-.17.07s-.12-.02-.17-.07c-.05-.05-.07-.1-.07-.17ZM258.7,29.4h-.4v-1.65h.4v1.65Z"/>
          <path class="cls-5" d="M259.05,28.57c0-.15.02-.28.08-.39.05-.11.11-.2.2-.27.08-.07.17-.12.27-.16.1-.03.19-.05.29-.05.13,0,.24.02.34.07.1.05.19.11.26.18.08.08.13.17.17.27.04.11.06.22.06.34,0,.14-.02.26-.07.37-.05.11-.11.2-.18.27-.08.08-.17.13-.27.17-.1.04-.2.06-.31.06-.11,0-.21-.02-.31-.06-.1-.04-.19-.09-.26-.17-.07-.08-.14-.17-.18-.27-.05-.11-.07-.23-.07-.37h-.02ZM259.47,28.57c0,.08,0,.16.03.24.02.07.05.13.08.18.04.05.08.09.13.12.05.03.11.04.18.04s.13-.02.18-.05c.05-.03.09-.07.13-.12.03-.05.06-.11.08-.18.01-.07.02-.14.02-.22,0-.18-.04-.31-.11-.42-.08-.11-.18-.16-.3-.16s-.22.05-.3.16c-.08.11-.11.24-.11.42h0Z"/>
          <path class="cls-5" d="M261,27.74h.32c.05.06.08.11.1.17.02.05.02.11.02.18v1.3h-.4v-1.25c0-.12-.02-.26-.05-.4h0ZM262.09,29.4v-1.19c0-.06-.01-.11-.04-.15-.02-.04-.07-.06-.13-.06-.03,0-.07,0-.1.02-.03,0-.07.02-.1,0-.05,0-.08-.02-.11-.05-.03-.03-.06-.07-.08-.11.11-.06.21-.11.28-.12.08-.02.15-.03.22-.03.06,0,.11,0,.17.03.05.02.11.05.14.09.05.04.08.09.1.16.02.07.04.14.04.24v1.18h-.4Z"/>
          <path class="cls-5" d="M264.24,28.4v.45c0,.11,0,.2,0,.29,0,.08.02.18.05.27h-.29s-.07-.05-.08-.1c-.02-.05-.03-.08-.04-.13l-.04.06s-.08.08-.13.11c-.04.03-.08.05-.11.06-.04.02-.08.02-.11.03-.04,0-.08,0-.11,0-.08,0-.15-.02-.21-.04-.06-.02-.11-.06-.16-.1-.05-.05-.08-.09-.1-.15-.02-.06-.04-.12-.04-.18,0-.08.02-.14.05-.2.03-.06.08-.11.15-.16.07-.05.16-.08.27-.12.11-.03.25-.05.42-.07,0,.06-.03.12-.06.18-.03.05-.08.09-.16.1-.1.02-.18.05-.21.09s-.06.09-.06.15.02.11.06.15c.04.04.1.06.16.06s.13-.02.2-.06c.07-.04.13-.1.18-.17v-.53c0-.11-.03-.21-.09-.28-.06-.07-.15-.11-.28-.11-.05,0-.11,0-.17.02-.06,0-.12.03-.2.06l-.1-.25c.1-.05.19-.08.29-.09.09-.02.18-.02.25-.02.22,0,.39.06.51.18.12.12.18.29.18.51h0Z"/>
          <path class="cls-5" d="M265.08,26.97v2.43h-.39v-2.43h.39Z"/>
          <path class="cls-5" d="M241.25,32.95c.14,0,.25-.03.34-.08.09-.05.18-.13.24-.22.06-.09.11-.2.14-.31.03-.11.05-.23.05-.35,0-.14-.02-.27-.05-.38-.04-.11-.09-.22-.17-.3-.08-.08-.18-.15-.3-.2-.12-.05-.27-.07-.44-.07h-.14c-.05,0-.11.02-.16.02v2.22h-.5v-2.52c.16-.03.31-.05.44-.07.14-.02.26-.02.36-.02.24,0,.44.03.63.09.18.06.34.14.47.26.13.11.23.25.29.41.07.16.1.35.1.56,0,.18-.03.36-.09.52-.06.16-.15.3-.26.42-.11.12-.24.21-.4.28-.15.07-.32.1-.5.1h-.09s-.05,0-.08,0c-.03,0-.06,0-.1-.02-.04,0-.08-.02-.13-.03.02-.03.03-.06.05-.1.02-.04.05-.07.08-.1.03-.03.06-.05.1-.08.04-.02.08-.03.13-.03h0Z"/>
          <path class="cls-5" d="M242.79,30.72h1.53v.37h-1.03v1.84h1.09v.37h-1.59v-2.56h0ZM243.42,32.11s.03-.08.05-.12c.01-.05.05-.08.07-.11.03-.04.06-.06.1-.08.04-.02.08-.03.14-.03h.43v.36h-.78Z"/>
          <path class="cls-5" d="M245.54,30.72h1.53v.37h-1.03v1.84h1.09v.37h-1.59v-2.56h0ZM246.17,32.11s.03-.08.05-.12c.02-.05.05-.08.07-.11.03-.04.06-.06.1-.08.04-.02.08-.03.14-.03h.43v.36h-.78Z"/>
          <path class="cls-5" d="M247.7,30.72h.64l.56,1.98.02.13.03-.13.56-1.98h.64l.24,2.56h-.47l-.14-1.93v-.17l-.05.17-.56,1.9h-.52l-.57-1.9-.05-.17v.17l-.14,1.94h-.47l.24-2.56h.02Z"/>
          <path class="cls-5" d="M252.65,31.46c0,.11-.02.22-.07.31-.05.09-.11.18-.18.24-.08.07-.16.12-.26.16-.1.04-.2.06-.31.08h-.17c-.06,0-.12-.02-.18-.03.02-.03.03-.07.05-.11.02-.04.04-.07.06-.1.02-.03.05-.05.08-.08.03-.02.07-.03.11-.04.05,0,.09-.02.14-.05.05-.02.08-.05.11-.09.03-.04.05-.08.08-.14.02-.05.03-.11.03-.16,0-.06-.01-.11-.04-.17-.02-.05-.05-.1-.1-.14-.05-.04-.09-.07-.15-.09-.06-.02-.13-.04-.2-.04h-.22s-.05,0-.08,0v2.23h-.51v-2.53c.09-.02.18-.03.25-.04.08,0,.14-.02.2-.02.06,0,.11,0,.18-.02.06,0,.11,0,.18,0,.14,0,.27.02.4.05.12.04.23.09.32.16.09.07.16.15.21.25.05.1.08.21.08.34h0Z"/>
          <path class="cls-5" d="M252.98,30.72h.51v2.2h.92v.37h-1.43v-2.56Z"/>
          <path class="cls-5" d="M254.74,30.72h1.53v.37h-1.03v1.84h1.09v.37h-1.59v-2.56h0ZM255.38,32.11s.03-.08.05-.12c.02-.05.05-.08.07-.11.03-.04.06-.06.1-.08.04-.02.08-.03.14-.03h.43v.36h-.78Z"/>
          <path class="cls-5" d="M257.83,33.32c-.21,0-.39-.03-.54-.1-.15-.07-.29-.16-.4-.28-.11-.12-.19-.26-.25-.42-.05-.16-.08-.34-.08-.53s.03-.36.08-.52c.06-.16.14-.3.25-.43.11-.12.24-.21.4-.28.16-.07.34-.11.54-.11.23,0,.43.04.59.12.16.08.29.18.4.31.1.13.18.27.22.43.05.16.07.31.07.47,0,.17-.03.34-.08.5-.05.16-.14.3-.24.43-.11.12-.24.22-.4.3s-.34.11-.54.11h0ZM257.83,31.02c-.12,0-.23.02-.32.08-.09.05-.17.12-.23.21-.06.09-.11.19-.14.31-.03.12-.05.24-.05.37s.01.24.05.36c.03.11.08.22.14.31.06.09.14.16.23.22.09.05.2.08.32.08.1,0,.19-.02.27-.07.09-.05.17-.11.24-.19.07-.08.12-.18.16-.31s.06-.26.06-.41c0-.14-.02-.27-.05-.39-.03-.12-.08-.22-.15-.3-.06-.08-.14-.15-.23-.21-.09-.05-.2-.08-.31-.08h0Z"/>
          <path class="cls-5" d="M260.69,32.29c.02.08.04.16.04.25s0,.18-.01.26c-.02.08-.03.17-.06.24-.02.08-.05.14-.08.19l-.66-1.78h.53l.24.83h0ZM260.3,33.78c.06,0,.11-.02.16-.05.05-.03.08-.07.12-.12.04-.05.07-.12.1-.2.03-.08.06-.18.1-.27l.52-1.69h.5l-.65,1.78c-.06.15-.11.28-.17.4-.05.11-.11.21-.17.28-.06.08-.13.13-.21.17-.08.04-.18.06-.31.06-.05,0-.1,0-.15-.02-.05,0-.11-.02-.17-.05l.11-.32s.08.02.11.02h.1Z"/>
          <path class="cls-5" d="M262.93,30.72h1.53v.37h-1.03v2.2h-.5v-2.56ZM263.58,32.11s.03-.08.05-.12c.02-.05.05-.08.07-.11.03-.04.06-.06.1-.08.04-.02.08-.03.14-.03h.43v.36h-.78Z"/>
          <path class="cls-5" d="M266.02,33.32c-.21,0-.38-.03-.54-.1-.16-.07-.29-.16-.4-.28-.11-.12-.19-.26-.25-.42-.05-.16-.08-.34-.08-.53s.03-.36.08-.52c.06-.16.14-.3.25-.43.11-.12.24-.21.4-.28.16-.07.34-.11.54-.11.23,0,.43.04.59.12.16.08.29.18.4.31.1.13.18.27.22.43.05.16.07.31.07.47,0,.17-.03.34-.08.5-.05.16-.14.3-.24.43-.11.12-.24.22-.4.3s-.34.11-.54.11h0ZM266.02,31.02c-.12,0-.23.02-.32.08-.09.05-.17.12-.23.21-.06.09-.11.19-.14.31-.03.11-.05.24-.05.37s.02.24.05.36c.03.11.08.22.14.31.06.09.14.16.23.22.09.05.2.08.32.08.1,0,.19-.02.27-.07.09-.05.17-.11.24-.19.07-.08.12-.18.16-.31s.06-.26.06-.41c0-.14-.02-.27-.05-.39-.03-.12-.08-.22-.15-.3-.06-.08-.14-.15-.23-.21-.09-.05-.2-.08-.31-.08h0Z"/>
          <path class="cls-5" d="M269.36,31.45c0,.14-.03.27-.09.37-.06.11-.15.18-.25.25l-.1.04s.02,0,.04.02c.01,0,.03.01.04.02.07.06.12.13.17.21.04.08.08.18.11.27.03.1.06.2.09.31.03.11.07.22.12.34h-.52c-.05-.09-.08-.18-.1-.29-.02-.1-.05-.2-.08-.3-.03-.1-.06-.18-.1-.27-.04-.08-.09-.15-.15-.2h-.16c-.05,0-.11-.01-.18-.03.01-.03.03-.07.05-.11.01-.04.04-.07.06-.1.02-.03.05-.06.08-.08.03-.02.07-.03.11-.04.05,0,.09-.02.14-.04.05-.02.08-.05.11-.09.03-.04.05-.08.08-.13.01-.05.03-.1.03-.16s-.02-.11-.04-.17c-.02-.05-.06-.1-.11-.14-.05-.04-.09-.07-.15-.09-.06-.02-.12-.03-.19-.03h-.22s-.05,0-.08,0v2.23h-.51v-2.53c.09-.02.18-.03.25-.04.08,0,.14-.02.2-.02.06,0,.11,0,.18-.02.06,0,.11,0,.18,0,.14,0,.27.02.39.05.12.04.23.08.32.15.09.07.16.15.21.24.05.1.08.21.08.34h0Z"/>
          <path class="cls-5" d="M270.05,30.72h.64l.56,1.98.02.13.03-.13.56-1.98h.64l.24,2.56h-.47l-.14-1.93v-.17l-.05.17-.56,1.9h-.52l-.56-1.9-.05-.17v.17l-.14,1.94h-.47l.24-2.56h.02Z"/>
          <path class="cls-5" d="M273.68,32.71l-.18.56h-.5l.92-2.56h.5l.92,2.56h-.52l-.63-1.91-.03-.13-.03.14-.3.92-.05.07h.32c.05,0,.1.02.14.04.04.02.07.05.1.09.03.04.05.08.07.11.02.05.04.08.05.12h-.78Z"/>
          <path class="cls-5" d="M276.85,33.32c-.22,0-.41-.03-.58-.1-.17-.07-.31-.16-.43-.28-.11-.12-.21-.26-.27-.42-.06-.16-.09-.34-.09-.52s.03-.36.09-.52c.06-.16.15-.3.27-.42.11-.12.26-.21.43-.28.17-.07.36-.11.57-.11.1,0,.2,0,.3.03.1.02.21.05.32.09l-.13.32c-.11-.03-.19-.05-.27-.06-.08-.02-.15-.02-.23-.02-.14,0-.26.03-.37.08-.11.05-.19.13-.26.21-.07.09-.12.19-.15.3-.03.11-.05.24-.05.36s.02.24.05.36c.03.11.08.22.15.31.07.09.15.16.26.21.11.05.23.08.37.08.16,0,.32-.04.49-.12l.13.32c-.11.05-.21.09-.31.12-.1.03-.21.04-.31.04h.01Z"/>
          <path class="cls-5" d="M278.12,33.27h-.5v-2.56h.5v2.56Z"/>
          <path class="cls-5" d="M279.63,33.32c-.2,0-.38-.03-.53-.1-.15-.07-.29-.16-.4-.27-.11-.11-.19-.26-.25-.42-.06-.16-.09-.34-.09-.53s.03-.37.09-.53c.06-.17.15-.31.25-.42.11-.12.24-.21.4-.27.16-.07.34-.1.53-.1s.37.03.53.1c.16.07.29.16.4.27.11.11.19.26.25.42.06.16.09.34.09.53s-.03.37-.09.53c-.06.16-.15.31-.27.42-.11.11-.24.21-.4.27-.15.07-.33.1-.51.1ZM279.63,32.96c.12,0,.23-.03.32-.08.09-.05.17-.13.23-.22.06-.09.11-.19.14-.31.03-.11.05-.24.05-.36,0-.13-.02-.25-.05-.37-.03-.11-.08-.22-.14-.31-.06-.09-.14-.16-.23-.21-.09-.05-.2-.08-.32-.08s-.23.02-.32.08c-.09.05-.17.12-.23.21-.06.09-.11.19-.14.31s-.05.24-.05.37.02.24.05.36c.03.11.08.22.14.31s.14.16.23.22c.09.05.2.08.32.08ZM279.97,30.43s-.08.07-.12.09c-.05.02-.09.04-.15.05-.05,0-.09.02-.14.02s-.08,0-.11,0l.31-.44h.47l-.25.29Z"/>
          <path class="cls-5" d="M281.77,31.48l-.05-.13v1.92h-.43v-2.56h.49l1.08,1.72.05.14v-1.86h.45v2.56h-.45l-1.13-1.79h0Z"/>
        </g>
      </g>
      <g id="g25354">
        <g id="g25320">
          <path id="path25312" class="cls-7" d="M169.3,12.85v12.68c0,4.56-3.69,8.62-8.25,8.62s-8.25-4.06-8.25-8.62v-12.68h16.5Z"/>
          <path id="path25314" class="cls-2" d="M162.13,29.99c0-.17.14-.3.3-.3s.3.14.3.3c0,.14-.07.24-.2.27h.91c-.14-.03-.2-.14-.2-.27,0-.17.14-.3.3-.3h.1l-.17,1.12h-2.13l-.17-1.12h.1c.17,0,.3.14.3.3,0,.14-.1.24-.2.27h.95c-.14-.07-.2-.17-.2-.27ZM165.38,26.64c0-.17.14-.3.3-.3s.3.14.3.3c0,.14-.07.24-.2.27h.91c-.14-.03-.2-.14-.2-.27,0-.17.14-.3.3-.3h.1l-.17,1.12h-2.13l-.17-1.12h.1c.17,0,.3.14.3.3,0,.14-.1.24-.2.27h.95c-.14-.03-.2-.14-.2-.27ZM162.24,26.64c0-.17.14-.3.3-.3s.3.14.3.3c0,.14-.07.24-.2.27h.91c-.14-.03-.2-.14-.2-.27,0-.17.14-.3.3-.3h.1l-.17,1.12h-2.13l-.17-1.12h.1c.17,0,.3.14.3.3,0,.14-.1.24-.2.27h.95c-.14-.03-.2-.14-.2-.27ZM158.96,26.64c0-.17.14-.3.3-.3s.3.14.3.3c0,.14-.07.24-.2.27h.91c-.14-.03-.2-.14-.2-.27,0-.17.14-.3.3-.3h.1l-.17,1.12h-2.13l-.17-1.12h.1c.17,0,.3.14.3.3,0,.14-.1.24-.2.27h.95c-.14-.03-.2-.14-.2-.27ZM162.13,25.05c0-.17.14-.3.3-.3s.3.14.3.3c0,.14-.07.24-.2.27h.91c-.14-.03-.2-.14-.2-.27,0-.17.14-.3.3-.3h.1l-.17,1.12h-2.13l-.17-1.12h.1c.17,0,.3.14.3.3,0,.14-.1.24-.2.27h.95c-.14-.03-.2-.14-.2-.27ZM163.76,28.3c0-.17.14-.3.3-.3s.3.14.3.3c0,.14-.07.24-.2.27h.91c-.14-.03-.2-.14-.2-.27,0-.17.14-.3.3-.3h.1l-.17,1.12h-2.13l-.17-1.12h.1c.17,0,.3.14.3.3,0,.14-.1.24-.2.27h.95c-.14-.07-.2-.17-.2-.27ZM160.61,28.3c0-.17.14-.3.3-.3s.3.14.3.3c0,.14-.07.24-.2.27h.91c-.14-.03-.2-.14-.2-.27,0-.17.14-.3.3-.3h.1l-.17,1.12h-2.13l-.17-1.12h.1c.17,0,.3.14.3.3,0,.14-.1.24-.2.27h.95c-.14-.07-.2-.17-.2-.27Z"/>
          <path id="path25316" class="cls-2" d="M159.26,19.81h-.91v-.74h.34v.34h.37v-.34h.37v.34h.37v-.34h.34v.74h-.88ZM158.35,20.08l-.27,1.89h.74v-.74c0-.27.24-.37.41-.37s.41.1.41.37v.74h.74l-.2-1.89h-1.83ZM156.32,19.81h-.91v-.74h.34v.34h.37v-.34h.37v.34h.37v-.34h.34v.74h-.88ZM155.41,20.08l-.27,1.89h.74v-.74c0-.27.24-.37.41-.37s.41.1.41.37v.74h.74l-.2-1.89h-1.83ZM159.26,16.19h-.91v-.74h.34v.34h.37v-.34h.37v.34h.37v-.34h.34v.74h-.88ZM158.35,16.47l-.27,1.89h.74v-.74c0-.27.24-.37.41-.37s.41.1.41.37v.74h.74l-.2-1.89h-1.83ZM156.32,16.19h-.91v-.74h.34v.34h.37v-.34h.37v.34h.37v-.34h.34v.74h-.88ZM155.41,16.47l-.27,1.89h.74v-.74c0-.27.24-.37.41-.37s.41.1.41.37v.74h.74l-.2-1.89h-1.83Z"/>
          <path id="path25318" class="cls-2" d="M160.27,2.16c0-.41.34-.74.74-.74s.74.34.74.74-.34.74-.74.74-.74-.34-.74-.74ZM156.76,8.28c-.3-.51-.47-1.08-.47-1.72,0-1.83,1.49-3.31,3.31-3.31v1.45c-1.01,0-1.86.85-1.86,1.86,0,.61.3,1.15.74,1.49-.64.03-1.18.14-1.72.24ZM160.27,3.21h1.52v4.7h-1.49V3.21h-.03ZM167.27,8.76c.41-.34.68-.85.68-1.45,0-1.01-.85-1.86-1.86-1.86v-1.45c1.83,0,3.31,1.49,3.31,3.31,0,.78-.27,1.49-.71,2.06-.41-.24-.88-.44-1.42-.61ZM163.66,8.05c.44-.34.74-.88.74-1.49,0-1.01-.85-1.86-1.86-1.86v-1.45c1.83,0,3.31,1.49,3.31,3.31,0,.64-.17,1.22-.47,1.72-.57-.1-1.15-.2-1.72-.24ZM153.41,9.37c-.44-.57-.71-1.28-.71-2.06,0-1.83,1.49-3.31,3.31-3.31v1.45c-1.01,0-1.86.85-1.86,1.86,0,.57.27,1.08.68,1.45-.54.17-1.01.37-1.42.61ZM161.05,8.99c3.99,0,6.39.91,7.07,1.22l-.81,1.25c-2.13-.64-4.06-.88-6.25-.88s-4.12.24-6.25.88l-.81-1.25c.68-.27,3.08-1.22,7.07-1.22ZM160.51.41h.41v-.41h.3v.41h.41v.3h-.41v.41h-.3v-.41h-.41v-.3Z"/>
        </g>
        <g id="g25338">
          <path id="path25322" class="cls-3" d="M173.43,16.19c0-.54.17-1.25.85-1.25s.91.71.91,1.25c0,.57-.24,1.28-.91,1.28-.64-.03-.85-.74-.85-1.28ZM175.25,18.16h.98v-5.75h-1.01v2.27h0c-.3-.37-.68-.54-1.18-.54-1.22,0-1.66.98-1.66,2.06s.44,2.06,1.66,2.06c.47,0,.91-.17,1.22-.54h0v.44Z"/>
          <path id="path25324" class="cls-3" d="M178.02,15.82c.03-.54.34-.91.91-.91s.81.44.85.91h-1.76ZM180.46,17.11c-.37.2-.81.41-1.32.41-.64,0-1.08-.37-1.12-.98h2.74c0-1.39-.41-2.37-1.86-2.37-1.22,0-1.83.95-1.83,2.1,0,1.28.74,2.03,2.06,2.03.54,0,.98-.1,1.35-.3v-.88h-.03Z"/>
          <polygon id="polygon25326" class="cls-3" points="183.77 18.16 184.79 18.16 184.79 13.76 184.79 13.76 186.24 18.16 187.25 18.16 188.71 13.76 188.71 13.76 188.71 18.16 189.72 18.16 189.72 12.81 188.03 12.81 186.75 16.87 186.75 16.87 185.46 12.81 183.77 12.81 183.77 18.16"/>
          <path id="path25328" class="cls-3" d="M194.49,14.23h-1.01v1.93c0,.51-.17,1.32-.91,1.32-.64,0-.68-.64-.68-1.12v-2.1h-1.01v2.5c0,.88.41,1.56,1.35,1.56.54,0,.98-.24,1.28-.64h0v.54h.98v-3.99Z"/>
          <path id="path25330" class="cls-3" d="M195.57,18.16h1.01v-1.45c0-.57,0-1.62.85-1.62.17,0,.37.03.47.07v-1.05c-.1-.03-.2-.03-.3-.03-.61,0-1.05.61-1.08.98h0v-.88h-.91v3.99h-.03Z"/>
          <path id="path25332" class="cls-3" d="M201.05,14.27c-.27-.07-.57-.14-.98-.14-1.22,0-1.89.91-1.89,2.03,0,1.22.64,2.1,1.93,2.1.41,0,.74-.03,1.01-.14l-.03-.85c-.17.07-.51.17-.78.17-.71,0-1.05-.57-1.05-1.28s.41-1.25,1.05-1.25c.3,0,.51.07.71.14l.03-.78Z"/>
          <path id="path25334" class="cls-3" d="M201.83,18.16h1.01v-3.92h-1.01v3.92ZM201.83,13.49h1.01v-.98h-1.01v.98Z"/>
          <path id="path25336" class="cls-3" d="M204.13,15.32c.34-.27.78-.44,1.22-.44.61,0,.88.2.88.85h-.57c-.44,0-.95.03-1.32.24-.41.2-.68.54-.68,1.12,0,.74.68,1.18,1.39,1.18.47,0,.98-.24,1.22-.68h0c0,.14,0,.37.03.57h.91c-.03-.3-.03-.57-.03-.88v-1.49c0-1.15-.51-1.66-1.69-1.66-.44,0-.98.1-1.39.3l.03.88ZM204.63,17.04c0-.61.68-.68,1.15-.68h.44c0,.3-.03.57-.2.81-.17.2-.41.34-.71.34-.37,0-.68-.14-.68-.47Z"/>
        </g>
        <g id="g25352">
          <path id="path25340" class="cls-3" d="M126.63,13.63h.34c.54,0,1.12.07,1.12.71,0,.68-.61.74-1.12.74h-.34v-1.45ZM125.55,18.12h1.08v-2.23h.34c.44,0,.57.17.74.54l.64,1.66h1.18l-.85-2.1c-.1-.24-.27-.54-.57-.54h0c.68-.1,1.12-.61,1.12-1.25,0-1.49-1.39-1.45-2.5-1.45h-1.15v5.38h-.03Z"/>
          <path id="path25342" class="cls-3" d="M130.96,15.76c.03-.54.34-.91.91-.91s.81.44.85.91h-1.76ZM133.4,17.07c-.37.2-.81.41-1.32.41-.64,0-1.08-.37-1.12-.98h2.74c0-1.39-.41-2.37-1.86-2.37-1.22,0-1.83.95-1.83,2.1,0,1.28.74,2.03,2.06,2.03.54,0,.98-.1,1.35-.3v-.88h-.03Z"/>
          <path id="path25344" class="cls-3" d="M136.2,17.31c-.57,0-.88-.64-.88-1.18,0-.61.24-1.25.91-1.25.61,0,.85.54.85,1.22s-.24,1.22-.88,1.22ZM137.15,14.17v.54h0c-.27-.44-.68-.64-1.22-.64-1.18,0-1.66,1.08-1.66,2.03,0,1.05.44,1.99,1.62,1.99.57,0,1.05-.3,1.22-.64h0c0,.68-.07,1.52-1.18,1.52-.34,0-.85-.17-1.15-.34l-.07.88c.47.2.95.27,1.35.27,1.66,0,2.1-1.01,2.1-2.1v-3.55h-1.01v.03Z"/>
          <path id="path25346" class="cls-3" d="M139.18,18.12h1.01v-3.96h-1.01v3.96ZM139.18,13.46h1.01v-.98h-1.01v.98Z"/>
          <path id="path25348" class="cls-3" d="M142.56,13.63h.64l1.05-1.12h-1.05l-.64,1.12ZM141.04,16.16c0,1.12.74,2.03,2.06,2.03s2.06-.91,2.06-2.03c0-1.28-.88-2.1-2.06-2.1-1.15.03-2.06.81-2.06,2.1ZM142.12,16.06c0-.57.34-1.18.98-1.18.68,0,.98.57.98,1.18,0,.64-.2,1.35-.98,1.35s-.98-.71-.98-1.35Z"/>
          <path id="path25350" class="cls-3" d="M145.97,18.12h1.01v-1.93c0-.51.17-1.32.91-1.32.64,0,.68.64.68,1.12v2.1h1.01v-2.5c0-.88-.41-1.56-1.35-1.56-.54,0-.98.17-1.28.64h0v-.54h-.98v3.99Z"/>
        </g>
      </g>
      <g>
        <rect class="cls-6" y="7.91" width="33.59" height="22.81"/>
        <rect class="cls-10" x=".65" y="8.54" width="32.3" height="21.53"/>
        <polyline class="cls-4" points="16.11 13.23 16.79 12.73 17.47 13.23 17.21 12.42 17.9 11.93 17.05 11.93 16.79 11.11 16.53 11.93 15.68 11.93 16.37 12.42 16.11 13.23"/>
        <polyline class="cls-4" points="12.58 14.18 13.26 13.68 13.94 14.18 13.68 13.37 14.38 12.87 13.52 12.87 13.26 12.06 13 12.88 12.15 12.87 12.84 13.37 12.58 14.18"/>
        <polyline class="cls-4" points="10.68 14.65 10.42 15.46 9.57 15.46 10.26 15.96 10 16.76 10.68 16.27 11.36 16.76 11.1 15.96 11.8 15.46 10.94 15.46 10.68 14.65"/>
        <polyline class="cls-4" points="9.73 19.79 10.42 20.29 10.16 19.48 10.85 18.98 10 18.98 9.73 18.17 9.47 18.99 8.62 18.98 9.31 19.48 9.05 20.29 9.73 19.79"/>
        <polyline class="cls-4" points="10.94 22.52 10.68 21.7 10.42 22.52 9.57 22.52 10.26 23.01 10 23.82 10.68 23.32 11.36 23.82 11.1 23.01 11.8 22.52 10.94 22.52"/>
        <polyline class="cls-4" points="13.53 25.1 13.27 24.29 13.01 25.1 12.15 25.1 12.85 25.6 12.59 26.4 13.27 25.91 13.95 26.4 13.69 25.6 14.38 25.1 13.53 25.1"/>
        <polyline class="cls-4" points="17.05 26.04 16.79 25.23 16.53 26.04 15.68 26.04 16.37 26.54 16.11 27.34 16.79 26.84 17.47 27.34 17.21 26.54 17.9 26.04 17.05 26.04"/>
        <polyline class="cls-4" points="20.57 25.1 20.31 24.29 20.05 25.1 19.2 25.1 19.89 25.6 19.63 26.4 20.31 25.91 20.99 26.4 20.74 25.6 21.43 25.1 20.57 25.1"/>
        <polyline class="cls-4" points="23.16 22.52 22.9 21.7 22.64 22.52 21.79 22.52 22.48 23.01 22.22 23.82 22.9 23.32 23.58 23.82 23.32 23.01 24.01 22.52 23.16 22.52"/>
        <polyline class="cls-4" points="24.95 18.97 24.1 18.97 23.84 18.16 23.57 18.98 22.72 18.97 23.41 19.47 23.15 20.28 23.84 19.78 24.52 20.28 24.26 19.47 24.95 18.97"/>
        <polyline class="cls-4" points="22.22 16.75 22.9 16.26 23.58 16.75 23.32 15.95 24.01 15.45 23.16 15.45 22.9 14.64 22.64 15.45 21.78 15.45 22.48 15.95 22.22 16.75"/>
        <polyline class="cls-4" points="20.32 12.06 20.06 12.88 19.21 12.87 19.9 13.37 19.64 14.18 20.32 13.68 21 14.18 20.75 13.37 21.44 12.87 20.58 12.87 20.32 12.06"/>
        <g>
          <path class="cls-10" d="M41.22,14.88l1.04.33c-.16.58-.42,1.01-.79,1.29-.37.28-.84.42-1.41.42-.7,0-1.28-.24-1.74-.72-.45-.48-.68-1.14-.68-1.97,0-.88.23-1.57.68-2.05.46-.49,1.05-.73,1.8-.73.65,0,1.17.19,1.58.57.24.23.42.55.54.98l-1.06.25c-.06-.27-.19-.49-.39-.65-.2-.16-.44-.24-.72-.24-.39,0-.71.14-.96.42-.24.28-.37.74-.37,1.37,0,.67.12,1.15.36,1.43.24.28.55.43.94.43.28,0,.53-.09.73-.27.2-.18.35-.47.44-.85Z"/>
          <path class="cls-10" d="M42.93,14.86c0-.34.08-.66.25-.98.17-.32.4-.56.71-.72.3-.17.65-.25,1.02-.25.58,0,1.06.19,1.43.57.37.38.56.85.56,1.43s-.19,1.06-.56,1.44-.85.57-1.42.57c-.35,0-.69-.08-1.01-.24s-.56-.39-.73-.7c-.17-.31-.25-.68-.25-1.12ZM43.97,14.91c0,.38.09.67.27.87.18.2.4.3.67.3s.49-.1.67-.3.27-.5.27-.88-.09-.67-.27-.87-.4-.3-.67-.3-.49.1-.67.3c-.18.2-.27.49-.27.87Z"/>
          <path class="cls-10" d="M47.27,12.99h.56v-.29c0-.32.03-.56.1-.72.07-.16.2-.29.38-.39.18-.1.42-.15.7-.15s.57.04.85.13l-.14.71c-.16-.04-.32-.06-.47-.06s-.25.03-.32.1c-.06.07-.1.2-.1.4v.27h.76v.8h-.76v3.04h-1.02v-3.04h-.56v-.8ZM50.12,12.47v-.94h1.02v.94h-1.02ZM50.12,16.83v-3.84h1.02v3.84h-1.02Z"/>
          <path class="cls-10" d="M55.7,16.83h-1.02v-1.96c0-.41-.02-.68-.07-.8s-.11-.22-.21-.28c-.1-.07-.22-.1-.35-.1-.18,0-.33.05-.47.14-.14.1-.24.22-.29.38-.05.16-.08.45-.08.88v1.74h-1.02v-3.84h.94v.56c.33-.43.76-.65,1.27-.65.22,0,.43.04.61.12.19.08.33.18.42.31.1.13.16.27.2.43.04.16.06.39.06.68v2.39Z"/>
          <path class="cls-10" d="M57.49,14.16l-.92-.17c.1-.37.28-.65.53-.82.25-.18.63-.27,1.13-.27.45,0,.79.05,1.01.16.22.11.38.24.47.41.09.17.14.47.14.91v1.19c-.01.34,0,.59.04.75.03.16.09.33.18.52h-1c-.03-.07-.06-.17-.1-.3-.02-.06-.03-.1-.04-.12-.17.17-.36.3-.56.38-.2.08-.41.13-.63.13-.4,0-.71-.11-.93-.32-.23-.21-.34-.49-.34-.81,0-.22.05-.41.16-.58.1-.17.25-.3.44-.39.19-.09.46-.17.81-.24.47-.09.8-.17.99-.25v-.1c0-.2-.05-.33-.14-.42-.1-.08-.28-.12-.55-.12-.18,0-.32.04-.42.11-.1.07-.18.2-.25.37ZM58.85,14.99c-.13.04-.34.1-.62.16-.28.06-.47.12-.55.18-.13.09-.2.21-.2.36s.05.27.16.37c.11.1.24.16.4.16.18,0,.36-.06.52-.18.12-.09.2-.2.24-.34.03-.09.04-.25.04-.5v-.2Z"/>
          <path class="cls-10" d="M64.34,16.83h-1.02v-1.96c0-.41-.02-.68-.07-.8s-.11-.22-.21-.28c-.1-.07-.22-.1-.35-.1-.18,0-.33.05-.47.14-.14.1-.24.22-.29.38-.05.16-.08.45-.08.88v1.74h-1.02v-3.84h.94v.56c.33-.43.76-.65,1.27-.65.22,0,.43.04.61.12.19.08.33.18.42.31.1.13.16.27.2.43.04.16.06.39.06.68v2.39Z"/>
          <path class="cls-10" d="M68.72,14.13l-1,.18c-.03-.2-.11-.35-.23-.45-.12-.1-.27-.15-.46-.15-.25,0-.45.09-.61.26s-.23.47-.23.88c0,.46.08.78.23.97.15.19.36.28.62.28.19,0,.35-.05.47-.16.12-.11.21-.3.26-.57l1,.17c-.1.46-.3.8-.6,1.04-.29.23-.69.35-1.18.35-.56,0-1.01-.18-1.34-.53-.33-.35-.5-.84-.5-1.47s.17-1.13.5-1.48c.33-.35.79-.53,1.36-.53.47,0,.84.1,1.12.3s.47.51.59.92Z"/>
          <path class="cls-10" d="M69.49,12.47v-.94h1.02v.94h-1.02ZM69.49,16.83v-3.84h1.02v3.84h-1.02Z"/>
          <path class="cls-10" d="M72.31,14.16l-.92-.17c.1-.37.28-.65.53-.82.25-.18.63-.27,1.13-.27.45,0,.79.05,1.01.16.22.11.38.24.47.41.09.17.14.47.14.91v1.19c-.01.34,0,.59.04.75.03.16.09.33.18.52h-1c-.03-.07-.06-.17-.1-.3-.02-.06-.03-.1-.04-.12-.17.17-.36.3-.56.38-.2.08-.41.13-.63.13-.4,0-.71-.11-.93-.32-.23-.21-.34-.49-.34-.81,0-.22.05-.41.16-.58.1-.17.25-.3.44-.39.19-.09.46-.17.81-.24.47-.09.8-.17.99-.25v-.1c0-.2-.05-.33-.14-.42-.1-.08-.28-.12-.55-.12-.18,0-.32.04-.42.11-.1.07-.18.2-.25.37ZM73.66,14.99c-.13.04-.34.1-.62.16-.28.06-.47.12-.55.18-.13.09-.2.21-.2.36s.05.27.16.37c.11.1.24.16.4.16.18,0,.36-.06.52-.18.12-.09.2-.2.24-.34.03-.09.04-.25.04-.5v-.2Z"/>
          <path class="cls-10" d="M79.18,16.83h-.94v-.56c-.16.22-.34.38-.55.49-.21.11-.43.16-.65.16-.44,0-.82-.18-1.13-.53-.31-.36-.47-.85-.47-1.49s.15-1.15.46-1.48c.31-.34.69-.51,1.16-.51.43,0,.8.18,1.11.53v-1.91h1.02v5.3ZM76.47,14.83c0,.41.06.71.17.89.16.27.39.4.69.4.23,0,.43-.1.6-.3.16-.2.25-.5.25-.89,0-.44-.08-.76-.24-.95s-.36-.29-.61-.29-.44.1-.61.29c-.16.19-.24.48-.24.86Z"/>
          <path class="cls-10" d="M79.95,14.86c0-.34.08-.66.25-.98.17-.32.4-.56.71-.72.3-.17.65-.25,1.02-.25.58,0,1.06.19,1.43.57.37.38.56.85.56,1.43s-.19,1.06-.56,1.44-.85.57-1.42.57c-.35,0-.69-.08-1.01-.24s-.56-.39-.73-.7c-.17-.31-.25-.68-.25-1.12ZM80.99,14.91c0,.38.09.67.27.87.18.2.4.3.67.3s.49-.1.67-.3.27-.5.27-.88-.09-.67-.27-.87-.4-.3-.67-.3-.49.1-.67.3c-.18.2-.27.49-.27.87Z"/>
          <path class="cls-10" d="M86.74,12.99h.95v.56c.12-.19.29-.35.5-.47.21-.12.44-.18.7-.18.45,0,.82.17,1.14.52.31.35.47.84.47,1.46s-.16,1.14-.47,1.49c-.31.36-.69.53-1.14.53-.21,0-.4-.04-.58-.13-.17-.08-.35-.23-.54-.43v1.93h-1.02v-5.3ZM87.74,14.85c0,.43.09.75.26.96.17.21.38.31.63.31s.43-.09.59-.28c.16-.19.23-.5.23-.93,0-.4-.08-.7-.24-.9-.16-.2-.36-.29-.6-.29s-.45.1-.62.29c-.16.19-.25.48-.25.85Z"/>
          <path class="cls-10" d="M91.05,14.86c0-.34.08-.66.25-.98.17-.32.4-.56.71-.72.3-.17.65-.25,1.02-.25.58,0,1.06.19,1.43.57.37.38.56.85.56,1.43s-.19,1.06-.56,1.44-.85.57-1.42.57c-.35,0-.69-.08-1.01-.24s-.56-.39-.73-.7c-.17-.31-.25-.68-.25-1.12ZM92.09,14.91c0,.38.09.67.27.87.18.2.4.3.67.3s.49-.1.67-.3.27-.5.27-.88-.09-.67-.27-.87-.4-.3-.67-.3-.49.1-.67.3c-.18.2-.27.49-.27.87Z"/>
          <path class="cls-10" d="M96.78,16.83h-1.02v-3.84h.94v.55c.16-.26.31-.43.44-.51.13-.08.28-.12.44-.12.23,0,.45.06.67.19l-.31.89c-.17-.11-.33-.17-.48-.17s-.26.04-.36.12c-.1.08-.18.22-.23.42-.06.2-.08.63-.08,1.29v1.19Z"/>
          <path class="cls-10" d="M37.82,25.72v-5.3h1.02v5.3h-1.02Z"/>
          <path class="cls-10" d="M40.64,23.05l-.92-.17c.1-.37.28-.65.53-.82.25-.18.63-.27,1.13-.27.45,0,.79.05,1.01.16.22.11.38.24.47.41.09.17.14.47.14.91v1.19c-.01.34,0,.59.04.75.03.16.09.33.18.52h-1c-.03-.07-.06-.17-.1-.3-.02-.06-.03-.1-.04-.12-.17.17-.36.3-.56.38-.2.08-.41.13-.63.13-.4,0-.71-.11-.93-.32-.23-.21-.34-.49-.34-.81,0-.22.05-.41.16-.58.1-.17.25-.3.44-.39.19-.09.46-.17.81-.24.47-.09.8-.17.99-.25v-.1c0-.2-.05-.33-.14-.42-.1-.08-.28-.12-.55-.12-.18,0-.32.04-.42.11-.1.07-.18.2-.25.37ZM42,23.87c-.13.04-.34.1-.62.16-.28.06-.47.12-.55.18-.13.09-.2.21-.2.36s.05.27.16.37c.11.1.24.16.4.16.18,0,.36-.06.52-.18.12-.09.2-.2.24-.34.03-.09.04-.25.04-.5v-.2Z"/>
          <path class="cls-10" d="M46.05,20.42h1.07v2.87c0,.46.01.75.04.89.05.22.15.39.33.52s.41.2.71.2.53-.06.69-.19c.15-.12.25-.28.28-.46.03-.18.05-.48.05-.9v-2.93h1.07v2.78c0,.64-.03,1.09-.09,1.35-.06.26-.16.48-.32.67-.16.18-.36.32-.62.43s-.6.16-1.02.16c-.51,0-.89-.06-1.15-.18-.26-.12-.47-.27-.62-.46-.15-.19-.25-.38-.3-.59-.07-.3-.1-.75-.1-1.34v-2.83Z"/>
          <path class="cls-10" d="M54.89,25.72h-1.02v-1.96c0-.41-.02-.68-.07-.8-.04-.12-.11-.22-.21-.28-.1-.07-.22-.1-.35-.1-.18,0-.33.05-.47.14-.14.1-.24.22-.29.38-.05.16-.08.45-.08.88v1.74h-1.02v-3.84h.94v.56c.33-.43.76-.65,1.27-.65.22,0,.43.04.61.12.19.08.33.18.42.31.1.13.16.27.2.43.04.16.06.39.06.68v2.39Z"/>
          <path class="cls-10" d="M55.92,21.36v-.94h1.02v.94h-1.02ZM55.92,25.72v-3.84h1.02v3.84h-1.02Z"/>
          <path class="cls-10" d="M57.74,23.74c0-.34.08-.66.25-.98.17-.32.4-.56.71-.72.3-.17.65-.25,1.02-.25.58,0,1.06.19,1.43.57.37.38.56.85.56,1.43s-.19,1.06-.56,1.44-.85.57-1.42.57c-.35,0-.69-.08-1.01-.24s-.56-.39-.73-.7c-.17-.31-.25-.68-.25-1.12ZM58.78,23.8c0,.38.09.67.27.87.18.2.4.3.67.3s.49-.1.67-.3.27-.5.27-.88-.09-.67-.27-.87-.4-.3-.67-.3-.49.1-.67.3c-.18.2-.27.49-.27.87ZM59.21,21.41l.5-1.08h1.14l-.99,1.08h-.64Z"/>
          <path class="cls-10" d="M65.99,25.72h-1.02v-1.96c0-.41-.02-.68-.07-.8s-.11-.22-.21-.28c-.1-.07-.22-.1-.35-.1-.18,0-.33.05-.47.14-.14.1-.24.22-.29.38-.05.16-.08.45-.08.88v1.74h-1.02v-3.84h.94v.56c.33-.43.76-.65,1.27-.65.22,0,.43.04.61.12.19.08.33.18.42.31.1.13.16.27.2.43.04.16.06.39.06.68v2.39Z"/>
          <path class="cls-10" d="M69.08,25.72v-5.3h3.93v.9h-2.86v1.17h2.66v.89h-2.66v1.44h2.96v.89h-4.03Z"/>
          <path class="cls-10" d="M76.54,25.72v-.57c-.14.2-.32.37-.55.48-.23.12-.47.18-.72.18s-.49-.06-.69-.17c-.2-.11-.35-.27-.44-.48-.09-.2-.14-.49-.14-.85v-2.43h1.02v1.76c0,.54.02.87.06.99.04.12.11.22.2.29.1.07.22.11.38.11.17,0,.33-.05.47-.14.14-.1.23-.21.28-.35.05-.14.08-.49.08-1.04v-1.62h1.02v3.84h-.94Z"/>
          <path class="cls-10" d="M79.51,25.72h-1.02v-3.84h.94v.55c.16-.26.31-.43.44-.51.13-.08.28-.12.44-.12.23,0,.45.06.67.19l-.31.89c-.17-.11-.33-.17-.48-.17s-.26.04-.36.12c-.1.08-.18.22-.23.42-.06.2-.08.63-.08,1.29v1.19Z"/>
          <path class="cls-10" d="M81.18,23.74c0-.34.08-.66.25-.98.17-.32.4-.56.71-.72.3-.17.65-.25,1.02-.25.58,0,1.06.19,1.43.57.37.38.56.85.56,1.43s-.19,1.06-.56,1.44-.85.57-1.42.57c-.35,0-.69-.08-1.01-.24s-.56-.39-.73-.7c-.17-.31-.25-.68-.25-1.12ZM82.22,23.8c0,.38.09.67.27.87.18.2.4.3.67.3s.49-.1.67-.3.27-.5.27-.88-.09-.67-.27-.87-.4-.3-.67-.3-.49.1-.67.3c-.18.2-.27.49-.27.87Z"/>
          <path class="cls-10" d="M85.91,21.88h.95v.56c.12-.19.29-.35.5-.47.21-.12.44-.18.7-.18.45,0,.82.17,1.14.52.31.35.47.84.47,1.46s-.16,1.14-.47,1.49c-.31.36-.69.53-1.14.53-.21,0-.4-.04-.58-.13-.17-.08-.35-.23-.54-.43v1.93h-1.02v-5.3ZM86.92,23.73c0,.43.09.75.26.96.17.21.38.31.63.31s.43-.09.59-.28c.16-.19.23-.5.23-.93,0-.4-.08-.7-.24-.9-.16-.2-.36-.29-.6-.29s-.45.1-.62.29c-.16.19-.25.48-.25.85Z"/>
          <path class="cls-10" d="M92.69,24.49l1.01.17c-.13.37-.34.65-.62.85-.28.19-.63.29-1.05.29-.67,0-1.16-.22-1.48-.65-.25-.35-.38-.79-.38-1.32,0-.64.17-1.13.5-1.49s.75-.54,1.26-.54c.57,0,1.02.19,1.35.57.33.38.49.95.47,1.73h-2.54c0,.3.09.54.25.7.16.17.35.25.59.25.16,0,.29-.04.4-.13s.19-.23.25-.42ZM92.74,23.47c0-.29-.08-.52-.23-.67-.14-.15-.32-.23-.53-.23-.22,0-.4.08-.55.24-.14.16-.22.38-.21.66h1.52Z"/>
          <path class="cls-10" d="M95.34,23.05l-.92-.17c.1-.37.28-.65.53-.82.25-.18.63-.27,1.13-.27.45,0,.79.05,1.01.16.22.11.38.24.47.41.09.17.14.47.14.91v1.19c-.01.34,0,.59.04.75.03.16.09.33.18.52h-1c-.03-.07-.06-.17-.1-.3-.02-.06-.03-.1-.04-.12-.17.17-.36.3-.56.38-.2.08-.41.13-.63.13-.4,0-.71-.11-.93-.32-.23-.21-.34-.49-.34-.81,0-.22.05-.41.16-.58.1-.17.25-.3.44-.39.19-.09.46-.17.81-.24.47-.09.8-.17.99-.25v-.1c0-.2-.05-.33-.14-.42-.1-.08-.28-.12-.55-.12-.18,0-.32.04-.42.11-.1.07-.18.2-.25.37ZM96.7,23.87c-.13.04-.34.1-.62.16-.28.06-.47.12-.55.18-.13.09-.2.21-.2.36s.05.27.16.37c.11.1.24.16.4.16.18,0,.36-.06.52-.18.12-.09.2-.2.24-.34.03-.09.04-.25.04-.5v-.2Z"/>
        </g>
      </g>
    </g>
  </g>
</svg>